<svg xmlns="http://www.w3.org/2000/svg" xmlns:xlink="http://www.w3.org/1999/xlink" viewBox="0 0 129.66 44.17"><defs><style>.cls-1{fill:url(#linear-gradient);}</style><linearGradient id="linear-gradient" y1="22.08" x2="129.66" y2="22.08" gradientUnits="userSpaceOnUse"><stop offset="0" stop-color="#fef275"/><stop offset="1" stop-color="#bda32b"/></linearGradient></defs><title>Ресурс 3</title><g id="Слой_2" data-name="Слой 2"><g id="BG"><path class="cls-1" d="M0,9.4a4.87,4.87,0,0,0,0,.79c0,.13,0,.27,0,.4L.14,11a6.13,6.13,0,0,0,.63,1.64A6.52,6.52,0,0,0,2,14.13a10.91,10.91,0,0,0,3.52,2.15,19.32,19.32,0,0,0,2,.66,32.41,32.41,0,0,0,3.74,2.52l.74.43.79.42c.54.29,1.11.56,1.7.85,1.2.54,2.49,1.1,3.89,1.58A35.38,35.38,0,0,0,22.82,24c.8.16,1.63.29,2.46.37l1.26.1c.42,0,.85,0,1.28.05a52.89,52.89,0,0,0,12.58-1.34,84.4,84.4,0,0,0,8.5-2.38c1-.23,2.28-.49,3.71-.89s3.05-.85,4.82-1.36,3.63-1.24,5.62-1.95,4-1.59,6.14-2.51c1.54-.69,3-1.38,4.49-2a45.05,45.05,0,0,0,4.07-2.24l3.53-2.17c1.1-.67,2.14-1.27,3.1-1.8a25.08,25.08,0,0,1,4.76-2l.79-.22.59-.12.49-.1-.5,0-.6,0-.82.12A22.34,22.34,0,0,0,84,5.1c-1,.44-2.13,1-3.29,1.57s-2.38,1.27-3.66,2-2.62,1.4-4,2-3,1.29-4.49,2l-6,2.61c-1.94.77-3.77,1.52-5.46,2.21s-3.28,1.2-4.66,1.72-2.6.91-3.59,1.25c-2,.44-5,1-8.61,1.61a71.12,71.12,0,0,1-12.32.9l-1.23,0-1.21-.09c-.8-.07-1.57-.17-2.33-.3a41.51,41.51,0,0,1-4.37-1c-1.38-.4-2.67-.86-3.88-1.3-.59-.24-1.18-.45-1.72-.7l-.81-.34-.76-.35c-1.14-.53-2.13-1-3-1.52q.62.14,1.25.25a32.46,32.46,0,0,0,6.93,2.46c.37.1.76.15,1.14.23s.78.15,1.17.2c.8.09,1.61.23,2.44.27a40.78,40.78,0,0,0,5.16.09,65.27,65.27,0,0,0,12.86-2.06c1.84-.46,3.51-.93,5-1.34.73-.21,1.42-.4,2-.6l1.72-.55,1.76-.37,2.07-.54c1.49-.37,3.14-.9,5-1.46,3.6-1.18,7.75-2.77,12.12-4.54C72.42,8,75.47,6.74,78.27,5.74a62.35,62.35,0,0,1,7.65-2c1.11-.2,2.11-.44,3-.53a10.88,10.88,0,0,0,2.31-.45,3.51,3.51,0,0,0,.54-.24l.74,0,1.7.07.84,0,.84.06c.56,0,1.12.07,1.67.13a50.35,50.35,0,0,1,6.47,1l.78.18c.26.06.52.12.77.2l1.52.44,1.48.52c.25.08.49.18.72.28l.71.3c.24.1.48.19.71.31l.69.34c.46.22.92.44,1.36.7s.89.49,1.32.75l1.27.81c.21.13.42.28.62.42l.61.43.61.43c.2.14.39.3.59.45l1.16.9.54.45c.18.15.36.3.52.46l.5.47c.17.16.32.33.48.49.33.32.61.67.91,1a21.38,21.38,0,0,1,2.84,4.4,19.93,19.93,0,0,1,.92,2.31,18.83,18.83,0,0,1,.6,2.31c.06.38.13.76.17,1.14s.09.75.09,1.12a15.11,15.11,0,0,1-.38,4.19,13.6,13.6,0,0,1-1.37,3.51,14.93,14.93,0,0,1-2,2.7,16.47,16.47,0,0,1-2.32,2.1l-.64.46a3.42,3.42,0,0,1-.32.21l-.32.2c-.21.14-.43.25-.66.37l-.33.18-.34.16a15.43,15.43,0,0,1-2.87,1,20.2,20.2,0,0,1-3,.51,24.18,24.18,0,0,1-6-.21,23.88,23.88,0,0,1-2.85-.62c-.47-.12-.92-.28-1.37-.42l-.67-.25c-.22-.08-.44-.16-.66-.26a17.07,17.07,0,0,1-8.06-6.41l-.3-.52L92,32.05l-.13-.27-.26-.53-.21-.54-.1-.27c0-.09-.05-.18-.08-.27l-.16-.54c0-.18-.08-.37-.12-.55l-.06-.27c0-.09,0-.18,0-.27L90.78,28l0-.54v-.54l0-.53.06-.52c0-.09,0-.17,0-.26l0-.26.1-.51.13-.49.07-.24.09-.24.17-.47.2-.45.1-.22.11-.22.23-.43c.08-.14.17-.27.25-.4a9.05,9.05,0,0,1,.54-.77,9.63,9.63,0,0,1,2.6-2.31,9.25,9.25,0,0,1,2.83-1.14,9.1,9.1,0,0,1,2.6-.2h.29l.28,0,.55.07.3.06a4.11,4.11,0,1,0,2.09-.18l-.27-.16-.84-.4c-.31-.13-.66-.24-1-.37l-.59-.15-.31-.08-.33-.05a9.71,9.71,0,0,0-3-.06,10.4,10.4,0,0,0-3.43,1.08,11.16,11.16,0,0,0-3.28,2.56,10.81,10.81,0,0,0-.7.88c-.11.16-.23.31-.33.47l-.3.5-.15.25-.14.27-.27.54-.23.56-.12.29-.1.29-.19.6c-.05.2-.1.41-.15.62l-.07.31c0,.11,0,.21-.05.32l-.1.64-.05.66,0,.33v1l.06.68c0,.11,0,.23,0,.34l.06.34c0,.23.08.46.12.68l.17.68c0,.11.06.23.09.34l.12.33.24.67.29.66.15.33.17.32.34.64a16.35,16.35,0,0,0,1.72,2.39c.31.39.68.73,1,1.1l.55.51c.19.17.37.34.57.5l.59.48.62.45.31.23.32.21.65.42.68.39.34.19.35.18.7.36.72.33c.24.11.49.21.73.31l.75.29c.5.17,1,.36,1.53.5a26.33,26.33,0,0,0,3.19.75,26.71,26.71,0,0,0,6.75.31,23,23,0,0,0,3.47-.56,18.33,18.33,0,0,0,3.43-1.18l.42-.19.41-.22c.27-.15.55-.29.82-.46l.4-.25c.14-.08.27-.17.39-.26l.75-.53a19.4,19.4,0,0,0,2.76-2.5,17.83,17.83,0,0,0,2.38-3.3,16.6,16.6,0,0,0,1.66-4.32,19.09,19.09,0,0,0-.63-10.45,22.87,22.87,0,0,0-1.09-2.66,24.27,24.27,0,0,0-3.3-5c-.34-.38-.68-.78-1.05-1.14-.18-.18-.36-.37-.55-.55L122,10c-.19-.18-.4-.35-.6-.52L120.78,9,119.54,8c-.21-.16-.41-.32-.63-.47l-.65-.45-.66-.45c-.22-.15-.44-.3-.67-.44l-1.38-.85c-.47-.28-1-.53-1.44-.79s-1-.5-1.48-.74l-.75-.36c-.25-.12-.52-.21-.77-.32l-.78-.31c-.26-.11-.52-.21-.79-.3L107.92,2l-1.65-.45c-.27-.08-.55-.14-.83-.2l-.84-.18A52.71,52.71,0,0,0,97.78.24C97.2.19,96.63.17,96,.13l-.87,0-.87,0L92.57,0H89.09L87.34,0,85.57.1l-.89,0L83.79.2,82,.35c-.59.05-1.18.14-1.77.2-1.18.12-2.35.33-3.52.51-.59.09-1.17.21-1.75.32s-1.17.21-1.74.34c-1.16.25-2.31.49-3.46.78C67.49,3,65.23,3.67,63,4.31s-4.45,1.34-6.64,2S52,7.77,49.86,8.47s-4.24,1.37-6.34,2c-4.18,1.35-8.21,2.71-12.12,3.82-2,.56-3.87,1-5.76,1.45s-3.74.71-5.54.95a39.15,39.15,0,0,1-9.85,0l-.77-.29L6.63,15.3l-2.17-.84-1.87-.65,1.78.88,1.21.63.21.2.24.23-.31-.1a10.36,10.36,0,0,1-3.38-1.93,6,6,0,0,1-1.12-1.33A5.69,5.69,0,0,1,.59,10.9v0a4.11,4.11,0,0,0,.41.55,4.56,4.56,0,0,0,.82.73l.33.21L2,12a4.37,4.37,0,0,1-.72-1.22,4.08,4.08,0,0,1-.15-2.7,3.09,3.09,0,0,1,1-1.46,3.35,3.35,0,0,1,1-.46.53.53,0,0,1,.52.24,3.4,3.4,0,0,1,.48.72c.16.3.34.66.58,1A4.37,4.37,0,0,0,6,9.58a3.05,3.05,0,0,0,2,.5,2.5,2.5,0,0,0,1.51-.9A2.93,2.93,0,0,0,10,8.29a6.75,6.75,0,0,0,.31-1.22,6.65,6.65,0,0,1,.47-1.32,3,3,0,0,0,.4-.71A4.61,4.61,0,0,0,11.41,4c0-.13,0-.22,0-.29v-.1l-.23.32a8.73,8.73,0,0,1-.64.79,2.1,2.1,0,0,1-1,.67A3.54,3.54,0,0,1,8,5.24L6.84,4.94,6.21,4.8l-.32,0-.31,0A4.1,4.1,0,0,0,4,5a2.47,2.47,0,0,0-.93,0,3,3,0,0,0-1.56.87l0,.05a3.83,3.83,0,0,0-.55.53A3.73,3.73,0,0,0,.16,7.77,3.58,3.58,0,0,0,0,9.24C0,9.29,0,9.35,0,9.4Zm14,8.54a44.69,44.69,0,0,0,6.26-.14c1.84-.19,3.74-.46,5.66-.83s3.88-.82,5.87-1.34c4-1,8-2.32,12.24-3.58,2.09-.62,4.24-1.26,6.39-1.92s4.32-1.33,6.52-2,4.4-1.29,6.63-1.91S68,5,70.27,4.56c1.13-.26,2.27-.48,3.4-.7.57-.12,1.14-.2,1.71-.3s1.14-.2,1.71-.28c1.14-.15,2.28-.33,3.43-.43.57-.06,1.14-.13,1.71-.17l1.71-.11.86-.05.86,0,1.71,0h1.72l1.72,0h.36a11.3,11.3,0,0,1-2.28.18c-.92,0-1.95.14-3.09.24a49.07,49.07,0,0,0-7.93,1.54c-2.93.89-6,2-9.26,3.36-4.38,1.77-8.43,3.52-11.92,4.92-1.76.67-3.35,1.33-4.79,1.82l-2,.73-1.7.55-1.75.37-2.09.4c-1.5.28-3.19.62-5,1a94.09,94.09,0,0,1-12.68,1.61c-1.71.06-3.38.09-5,0-.81,0-1.59-.13-2.36-.19l-1.14-.15c-.37-.06-.75-.09-1.11-.17A30.77,30.77,0,0,1,14,17.94ZM6.4,15.87l-.57-.4-.07-.05.67.35L7,16ZM2.94,5.2l-.06,0,.21-.06a2.5,2.5,0,0,1,.71-.07l-.05,0-.37,0Z"/></g></g></svg>