<svg xmlns="http://www.w3.org/2000/svg" xmlns:xlink="http://www.w3.org/1999/xlink" viewBox="0 0 491.31 41.49"><defs><style>.cls-1{fill:url(#linear-gradient);}.cls-2{fill:url(#linear-gradient-2);}.cls-3{fill:url(#linear-gradient-3);}.cls-4{fill:url(#linear-gradient-4);}.cls-5{fill:url(#linear-gradient-5);}.cls-6{fill:url(#linear-gradient-6);}.cls-7{fill:url(#linear-gradient-7);}.cls-8{fill:url(#linear-gradient-8);}.cls-9{fill:url(#linear-gradient-9);}.cls-10{fill:url(#linear-gradient-10);}.cls-11{fill:url(#linear-gradient-11);}.cls-12{fill:url(#linear-gradient-12);}.cls-13{fill:url(#linear-gradient-13);}.cls-14{fill:url(#linear-gradient-14);}.cls-15{fill:url(#linear-gradient-15);}.cls-16{fill:url(#linear-gradient-16);}.cls-17{fill:url(#linear-gradient-17);}</style><linearGradient id="linear-gradient" x1="183.21" y1="20.74" x2="307.74" y2="20.74" gradientUnits="userSpaceOnUse"><stop offset="0" stop-color="#fef275"/><stop offset="1" stop-color="#bda32b"/></linearGradient><linearGradient id="linear-gradient-2" x1="224.94" y1="25.35" x2="273.28" y2="25.35" xlink:href="#linear-gradient"/><linearGradient id="linear-gradient-3" x1="219.3" y1="17.43" x2="267.64" y2="17.43" xlink:href="#linear-gradient"/><linearGradient id="linear-gradient-4" x1="470.71" y1="23.4" x2="491.31" y2="23.4" xlink:href="#linear-gradient"/><linearGradient id="linear-gradient-5" x1="467.48" y1="23.46" x2="471.27" y2="23.46" xlink:href="#linear-gradient"/><linearGradient id="linear-gradient-6" x1="452.93" y1="23.52" x2="456.72" y2="23.52" xlink:href="#linear-gradient"/><linearGradient id="linear-gradient-7" x1="455.61" y1="23.49" x2="468.52" y2="23.49" xlink:href="#linear-gradient"/><linearGradient id="linear-gradient-8" x1="279.73" y1="23.44" x2="293.14" y2="23.44" xlink:href="#linear-gradient"/><linearGradient id="linear-gradient-9" x1="292.78" y1="23.48" x2="295.25" y2="23.48" xlink:href="#linear-gradient"/><linearGradient id="linear-gradient-10" x1="295.25" y1="23.52" x2="454.83" y2="23.52" xlink:href="#linear-gradient"/><linearGradient id="linear-gradient-11" x1="0" y1="23.4" x2="20.6" y2="23.4" xlink:href="#linear-gradient"/><linearGradient id="linear-gradient-12" x1="20.05" y1="23.46" x2="23.83" y2="23.46" xlink:href="#linear-gradient"/><linearGradient id="linear-gradient-13" x1="34.59" y1="23.52" x2="38.38" y2="23.52" xlink:href="#linear-gradient"/><linearGradient id="linear-gradient-14" x1="22.79" y1="23.49" x2="35.7" y2="23.49" xlink:href="#linear-gradient"/><linearGradient id="linear-gradient-15" x1="198.17" y1="23.44" x2="211.59" y2="23.44" xlink:href="#linear-gradient"/><linearGradient id="linear-gradient-16" x1="196.07" y1="23.48" x2="198.53" y2="23.48" xlink:href="#linear-gradient"/><linearGradient id="linear-gradient-17" x1="36.49" y1="23.52" x2="196.07" y2="23.52" xlink:href="#linear-gradient"/></defs><title>Ресурс 1</title><g id="Слой_2" data-name="Слой 2"><g id="Слой_3" data-name="Слой 3"><path class="cls-1" d="M249.52,28.59l.6.43,1.77,1.26a79.24,79.24,0,0,0,7.05,4.42,54.72,54.72,0,0,0,5.4,2.61q1.52.63,3.21,1.2c1.13.36,2.31.71,3.55,1s2.54.53,3.89.71a40,40,0,0,0,4.19.31c.36,0,.72,0,1.09,0l1.1,0,1.12-.06c.37,0,.75-.06,1.13-.09a46.05,46.05,0,0,0,4.63-.67,33.16,33.16,0,0,0,4.7-1.29,25.81,25.81,0,0,0,4.58-2.14,22.14,22.14,0,0,0,2.14-1.46,20,20,0,0,0,2-1.75,16.09,16.09,0,0,0,3-4.39A15.31,15.31,0,0,0,306,23.35c0-.23,0-.47,0-.7s0-.47,0-.71v-.35c0-.12,0-.24,0-.35l0-.71a15.88,15.88,0,0,0-.56-2.79,14.76,14.76,0,0,0-1.14-2.64,14.51,14.51,0,0,0-1.67-2.4,17.69,17.69,0,0,0-2.12-2.11A22.11,22.11,0,0,0,298,8.8a26.71,26.71,0,0,0-5.67-2.64,27.6,27.6,0,0,0-6.26-1.34,32.6,32.6,0,0,0-6.56.08A36.88,36.88,0,0,0,273,6.33a64.43,64.43,0,0,0-12.66,5.84c-4.14,2.37-8.24,5-12.53,7.54l-3.2,1.85-3.15,1.86c-2.09,1.25-4.18,2.49-6.27,3.7a141.09,141.09,0,0,1-12.67,6.66c-2.15,1-4.32,1.85-6.53,2.6a47.9,47.9,0,0,1-6.7,1.78,33.74,33.74,0,0,1-6.82.59l-.85,0-.85-.06-.42,0-.21,0-.21,0-.84-.11-.42-.06-.41-.08-.82-.16c-.55-.09-1.09-.26-1.62-.4s-1.06-.33-1.59-.51l-.39-.14-.38-.16-.77-.33a8.23,8.23,0,0,1-.75-.36l-.74-.38c-.24-.14-.47-.29-.71-.44l-.35-.22-.17-.11-.17-.12-.66-.49c-.11-.08-.22-.16-.33-.25l-.31-.27-.62-.55-.57-.59-.28-.3-.26-.32-.51-.64c-.16-.22-.31-.45-.46-.67l-.23-.34c-.07-.11-.13-.23-.2-.35l-.39-.7c-.12-.24-.23-.48-.34-.73l-.17-.36c-.05-.12-.09-.25-.14-.37l-.28-.75c-.08-.25-.15-.51-.22-.76l-.11-.38c0-.13-.06-.26-.08-.38l-.16-.76c0-.26-.07-.51-.11-.77l-.05-.38c0-.13,0-.26,0-.38l-.05-.77c0-.25,0-.51,0-.76s0-.51,0-.76l0-.75c0-.25.05-.5.08-.75l0-.37,0-.19,0-.18.13-.73a19.54,19.54,0,0,1,5.2-10,30.11,30.11,0,0,1,4.11-3.36c.36-.24.72-.48,1.08-.7l1.1-.64c.75-.39,1.49-.79,2.25-1.11A27.25,27.25,0,0,1,201.88.86c.38-.11.76-.18,1.14-.26s.75-.16,1.13-.21l1.12-.17,1.11-.11c.37,0,.74-.05,1.1-.07L208,0h1.88l.26,0,.52,0,.52,0,.26,0,.26,0,1,.11c.34,0,.66.1,1,.15s.65.1,1,.16a34,34,0,0,1,6.9,2.13A38.5,38.5,0,0,1,227,5.52a42.87,42.87,0,0,1,6.53,5.2c.7.65,1.19,1.19,1.53,1.54l.51.54-.53-.52c-.35-.34-.86-.86-1.57-1.49a43.35,43.35,0,0,0-6.66-5,38.45,38.45,0,0,0-5.37-2.65,33.71,33.71,0,0,0-6.82-1.91l-1-.13c-.32,0-.64-.1-1-.12l-1-.08-.25,0h-.25l-.51,0-.51,0h-.51l-1,0-.52,0-.53,0c-.35,0-.71,0-1.06.09l-1.08.13-1.08.19c-.36.06-.72.15-1.09.23s-.73.16-1.09.27a26.32,26.32,0,0,0-4.35,1.6,27.66,27.66,0,0,0-8.05,5.73c-.28.31-.59.61-.84,1l-.4.5-.37.53-.19.26-.17.28-.35.56c-.11.19-.21.38-.32.58s-.22.38-.31.59c-.19.4-.39.8-.54,1.21-.08.21-.17.41-.25.62l-.22.64-.11.32-.09.33-.18.65c-.06.22-.1.44-.15.66s-.1.44-.13.67l-.11.68,0,.17,0,.17,0,.34c0,.23-.05.46-.06.69l0,.69c0,.23,0,.46,0,.69s0,.46,0,.7l.06.7c0,.12,0,.23,0,.35l.05.35c0,.23.07.46.11.69l.16.69c0,.11,0,.23.08.34l.1.34c.07.22.13.45.21.67l.26.66c0,.11.08.22.13.33l.15.32c.1.21.2.43.31.64l.36.61c.06.1.12.21.18.31l.21.29c.14.19.27.39.41.58l.46.55.23.28.25.26.51.52.55.47.28.24c.09.08.2.15.29.22l.59.43.15.11.16.1.32.19c.21.13.42.26.64.38l.67.34a7,7,0,0,0,.68.32l.7.29.35.14.36.12c.48.15,1,.34,1.46.45s1,.27,1.51.35l.77.14.38.07.39,0,.78.1.19,0h.2l.39,0,.79.05h.79a32,32,0,0,0,6.4-.63,46.31,46.31,0,0,0,6.4-1.76c2.12-.74,4.22-1.61,6.31-2.57,4.18-1.92,8.3-4.2,12.44-6.63,2.07-1.21,4.14-2.46,6.24-3.71l3.17-1.88,3.2-1.85c4.24-2.48,8.34-5.13,12.56-7.53a65.62,65.62,0,0,1,13.13-6,38.71,38.71,0,0,1,7-1.45,34.47,34.47,0,0,1,7,0,29.45,29.45,0,0,1,6.7,1.5,28.51,28.51,0,0,1,6.05,2.9,23.89,23.89,0,0,1,2.67,2A19.48,19.48,0,0,1,304,11.52a16.29,16.29,0,0,1,1.83,2.72,16.47,16.47,0,0,1,1.24,3,17.52,17.52,0,0,1,.58,3.13l0,.79c0,.13,0,.26,0,.39v.39c0,.26,0,.52,0,.78s0,.52-.05.77a16.86,16.86,0,0,1-1.61,5.85,17.54,17.54,0,0,1-3.4,4.75,21.32,21.32,0,0,1-2.14,1.85,23.41,23.41,0,0,1-2.31,1.51,26.94,26.94,0,0,1-4.86,2.15,34.1,34.1,0,0,1-4.9,1.23,46.65,46.65,0,0,1-4.76.58c-.39,0-.77.06-1.16.06l-1.15,0h-1.13c-.37,0-.75,0-1.11,0a40.56,40.56,0,0,1-4.27-.42c-1.37-.22-2.69-.5-3.94-.82s-2.45-.71-3.58-1.11-2.2-.85-3.21-1.3A54.3,54.3,0,0,1,258.76,35a77.16,77.16,0,0,1-6.93-4.65L250.11,29Z"/><path class="cls-2" d="M273.28,13.52l-.55.08-.66.1-.9.17a35.59,35.59,0,0,0-5.53,1.59A55.38,55.38,0,0,0,258,19.12c-2.8,1.57-5.78,3.46-9,5.43-1.59,1-3.17,1.93-4.72,2.81q-1.16.66-2.3,1.26l-2.18,1.16c-2.83,1.54-5.37,3-7.56,4.15l-.8.42-.77.38-1.41.69c-.9.4-1.67.75-2.31,1l-2,.76,1.85-1.08c.59-.35,1.29-.81,2.12-1.32l1.3-.86.71-.47.74-.51L235,30.69l1.86-1.26c.65-.42,1.31-.86,2-1.3L241,26.82l2.2-1.33,4.63-2.87a100.1,100.1,0,0,1,9.28-5.2,43.17,43.17,0,0,1,8.22-3,29.35,29.35,0,0,1,5.83-.86l.92,0h1.23Z"/><path class="cls-3" d="M267.64,5.6l-.55.08-.66.1-.9.17A35.58,35.58,0,0,0,260,7.55a55.39,55.39,0,0,0-7.67,3.65c-2.8,1.57-5.78,3.46-9,5.43-1.6,1-3.17,1.93-4.72,2.81q-1.16.66-2.3,1.26l-2.18,1.16c-2.83,1.54-5.37,3-7.56,4.15l-.8.42-.77.38-1.41.69c-.9.4-1.67.75-2.31,1l-2,.76,1.85-1.08c.59-.35,1.29-.81,2.12-1.32l1.3-.86.71-.47L226,25l3.31-2.27,1.86-1.26c.65-.42,1.31-.86,2-1.3l2.15-1.31,2.2-1.33,4.63-2.87a100.13,100.13,0,0,1,9.28-5.2,43.17,43.17,0,0,1,8.22-3,29.36,29.36,0,0,1,5.83-.86l.92,0h1.23Z"/><path class="cls-4" d="M491.31,23.31s-2.63-14.3-20.6.08C470.71,23.39,487.65,37.92,491.31,23.31Zm-4.13.08a.69.69,0,1,1-.69-.68A.69.69,0,0,1,487.18,23.39Zm-12,0s1.16-4.3,9.4,0C484.57,23.38,476.88,27.8,475.17,23.42Z"/><path class="cls-5" d="M469.38,25.36a1.89,1.89,0,0,1-1.9-1.89h0a1.89,1.89,0,0,1,1.89-1.9h0a1.89,1.89,0,0,1,1.9,1.89h0a1.89,1.89,0,0,1-1.89,1.9Z"/><path class="cls-6" d="M454.83,25.41a1.89,1.89,0,0,1-1.9-1.89h0a1.89,1.89,0,0,1,1.89-1.9h0a1.89,1.89,0,0,1,1.9,1.89h0a1.89,1.89,0,0,1-1.89,1.9Z"/><path class="cls-7" d="M462.1,28.51s6.48-5,6.42-5-6.46-5-6.46-5c-.75,1.64-6.46,5-6.45,5S461.33,26.87,462.1,28.51Z"/><path class="cls-8" d="M293.14,23.44c-11.7-9.36-13.42-.05-13.42-.05C282.11,32.9,293.14,23.44,293.14,23.44ZM282.86,23a.45.45,0,1,1-.45.44A.45.45,0,0,1,282.86,23Zm1.25.44c5.37-2.78,6.12,0,6.12,0C289.12,26.31,284.12,23.43,284.12,23.43Z"/><path class="cls-9" d="M294,24.72a1.23,1.23,0,0,0,1.24-1.23h0A1.23,1.23,0,0,0,294,22.25h0a1.23,1.23,0,0,0-1.24,1.23h0A1.23,1.23,0,0,0,294,24.72Z"/><rect class="cls-10" x="295.25" y="22.85" width="159.58" height="1.34"/><path class="cls-11" d="M20.6,23.39C2.63,9,0,23.31,0,23.31,3.66,37.92,20.6,23.39,20.6,23.39ZM4.82,22.71a.69.69,0,1,1-.69.68A.69.69,0,0,1,4.82,22.71Zm1.92.67c8.25-4.27,9.4,0,9.4,0C14.43,27.8,6.74,23.38,6.74,23.38Z"/><path class="cls-12" d="M21.93,25.36a1.89,1.89,0,0,0,1.9-1.89h0a1.89,1.89,0,0,0-1.89-1.9h0A1.89,1.89,0,0,0,20,23.45h0a1.89,1.89,0,0,0,1.89,1.9Z"/><path class="cls-13" d="M36.48,25.41a1.89,1.89,0,0,0,1.9-1.89h0a1.89,1.89,0,0,0-1.89-1.9h0a1.89,1.89,0,0,0-1.9,1.89h0a1.89,1.89,0,0,0,1.89,1.9Z"/><path class="cls-14" d="M29.22,28.51s-6.48-5-6.42-5,6.46-5,6.46-5c.75,1.64,6.46,5,6.45,5S30,26.87,29.22,28.51Z"/><path class="cls-15" d="M211.59,23.38s-1.71-9.31-13.42.05C198.17,23.44,209.21,32.9,211.59,23.38Zm-2.69.05a.45.45,0,1,1-.45-.44A.45.45,0,0,1,208.9,23.44Zm-7.83,0s.75-2.8,6.12,0C207.2,23.43,202.19,26.31,201.07,23.45Z"/><path class="cls-16" d="M197.31,24.72a1.23,1.23,0,0,1-1.24-1.23h0a1.23,1.23,0,0,1,1.23-1.24h0a1.23,1.23,0,0,1,1.24,1.23h0a1.23,1.23,0,0,1-1.23,1.24Z"/><rect class="cls-17" x="36.49" y="22.85" width="159.58" height="1.34"/></g></g></svg>