<svg xmlns="http://www.w3.org/2000/svg" xmlns:xlink="http://www.w3.org/1999/xlink" viewBox="0 0 194.43 55.85"><defs><style>.cls-1{fill:url(#linear-gradient);}</style><linearGradient id="linear-gradient" y1="27.93" x2="194.43" y2="27.93" gradientUnits="userSpaceOnUse"><stop offset="0" stop-color="#fef275"/><stop offset="1" stop-color="#bda32b"/></linearGradient></defs><title>Ресурс 4</title><g id="Слой_2" data-name="Слой 2"><g id="BG"><path class="cls-1" d="M124.14,55.85l-.23-.11-.67-.33c-.59-.29-1.47-.75-2.61-1.35s-2.55-1.37-4.23-2.24S112.77,50,110.5,49c-1.13-.48-2.35-.95-3.65-1.37a25.75,25.75,0,0,0-4.2-1c-.37-.06-.76-.08-1.14-.13l-.58,0c-.2,0-.39,0-.59,0h-.6l-.6.05a5.26,5.26,0,0,0-.61.08c-.2,0-.41.06-.61.12l-.61.16-.6.21a6.2,6.2,0,0,0-.59.24c-.2.08-.39.18-.58.28a5.37,5.37,0,0,0-2.08,1.72,2.08,2.08,0,0,0-.32,1.47,2.4,2.4,0,0,0,.75,1.32,5.52,5.52,0,0,0,2.61,1.25,8.66,8.66,0,0,0,2.94.09,9.39,9.39,0,0,0,1.47-.34l.71-.25.7-.31a6.94,6.94,0,0,0,1.34-.85,4.26,4.26,0,0,0,1.07-1.27,3.72,3.72,0,0,0,.43-1.66,5.12,5.12,0,0,0-.26-1.67,8,8,0,0,0-.68-1.52,12.18,12.18,0,0,0-.91-1.38,21,21,0,0,0-2.21-2.48,28.67,28.67,0,0,0-5.46-4.13,34.25,34.25,0,0,0-6.51-2.93,28.67,28.67,0,0,0-7.32-1.44,17.9,17.9,0,0,0-7.74,1.14,13.16,13.16,0,0,0-3.51,2.1l-.4.34-.37.36-.37.37-.35.4a6.55,6.55,0,0,0-1.15,1.88,4.17,4.17,0,0,0-.22,2.36,4.64,4.64,0,0,0,1.09,2.09,8.18,8.18,0,0,0,1.7,1.44,12.6,12.6,0,0,0,1.92,1,21.19,21.19,0,0,0,8.47,1.69l.56,0,.54,0,1.08-.1c.72-.05,1.44-.17,2.16-.27l1.08-.16,1.08-.2c.72-.14,1.44-.26,2.15-.44a84.72,84.72,0,0,0,16.95-6q4.17-1.93,8.25-4.22l2-1.16,2-1.2q2-1.22,4-2.47c5.38-3.33,10.79-6.79,16.42-10A111.6,111.6,0,0,1,157,13.79l1.59-.56c.53-.18,1.05-.34,1.59-.5,1.07-.31,2.15-.58,3.23-.82A61.44,61.44,0,0,1,170,10.85a49.32,49.32,0,0,1,6.54-.29,30.65,30.65,0,0,1,6.36.78,15.62,15.62,0,0,1,5.62,2.46,9.57,9.57,0,0,1,3.47,4.68,11.61,11.61,0,0,1,.59,2.92,25.09,25.09,0,0,1,.08,3.07l0,.76-.08.75c0,.5-.14,1-.22,1.49a15.61,15.61,0,0,1-.84,2.85l-.13.34c0,.11-.1.22-.16.33l-.32.66c-.25.42-.47.86-.76,1.25a14.56,14.56,0,0,1-.87,1.17c-.16.19-.33.36-.49.54l-.25.27-.26.25a18,18,0,0,1-4.82,3.28,29.24,29.24,0,0,1-5.54,1.9,45.2,45.2,0,0,1-5.75,1,73.37,73.37,0,0,1-11.44.2c-3.76-.2-7.43-.61-11-1.14s-7.07-1.19-10.46-1.93-6.67-1.58-9.83-2.5c-1.58-.46-3.12-1-4.65-1.48l-4.52-1.47c-1.48-.5-2.93-1-4.36-1.52s-2.84-1-4.22-1.49c-11-4-20.47-7.85-28.15-11l-6-2.61-6.65-2.9-7.24-3.16C61,9.18,58.41,8.06,55.68,7S50.1,4.78,47.11,3.8a86.83,86.83,0,0,0-9.38-2.55A56.84,56.84,0,0,0,27.52,0a41.37,41.37,0,0,0-5.35.2,36.59,36.59,0,0,0-5.41.94,24.94,24.94,0,0,0-10.21,5,19.84,19.84,0,0,0-4,4.42l-.41.64-.37.67-.18.33-.16.35c-.11.23-.22.46-.32.7-.18.48-.38,1-.52,1.45-.07.25-.16.49-.21.75l-.17.76a13.16,13.16,0,0,0,.3,6.26A14.79,14.79,0,0,0,3.65,28l.26.3.28.29.56.57c.38.37.79.71,1.19,1.07s.83.66,1.26,1l1.31.9A33.26,33.26,0,0,0,14.21,35a48.93,48.93,0,0,0,12.56,2.93c2.16.24,4.34.35,6.53.4,1.1,0,2.2,0,3.3,0s2.2-.06,3.31-.12a120.94,120.94,0,0,0,13.31-1.47C57.66,36,62.11,35,66.54,33.89l9.65-2.63c1.59-.44,3.19-.86,4.77-1.32l4.72-1.38,4.68-1.37c1.55-.46,3.11-.9,4.64-1.4l9.13-2.87,2.26-.71,2.23-.75,4.43-1.5,4.39-1.48,2.18-.74,2.16-.78c5.72-2.1,11.23-4.32,16.75-5.91A46.27,46.27,0,0,1,155,8.9a38.79,38.79,0,0,1,7.85,1.31,22.56,22.56,0,0,1,3.61,1.34,12.64,12.64,0,0,1,3.09,2,7,7,0,0,1,2,2.88,7,7,0,0,1,.21,3.42,11.81,11.81,0,0,1-1.13,3.32,11.52,11.52,0,0,1-2,2.84A12.82,12.82,0,0,1,166,28.19a17.3,17.3,0,0,1-3,1.44,25.93,25.93,0,0,1-6.46,1.31,44.85,44.85,0,0,1-6.35.05c-2.07-.11-4.08-.34-6-.61s-3.84-.6-5.67-.94-3.58-.72-5.27-1.12A62.82,62.82,0,0,1,116.52,22,28.27,28.27,0,0,1,108,14.81l-.29-.37-.25-.36c-.16-.24-.31-.45-.44-.66-.25-.42-.47-.77-.63-1.06l-.46-.89.44.9c.15.3.37.65.61,1.08.13.21.28.43.43.67l.24.37.28.38a28.31,28.31,0,0,0,8.47,7.43A62.78,62.78,0,0,0,133,28.9q2.54.66,5.29,1.22c1.83.37,3.72.73,5.68,1s4,.56,6.09.7a45.55,45.55,0,0,0,6.48,0,26.85,26.85,0,0,0,6.73-1.27,18.34,18.34,0,0,0,3.26-1.5,13.91,13.91,0,0,0,2.89-2.3,12.66,12.66,0,0,0,2.19-3.08,13,13,0,0,0,1.28-3.64,8.24,8.24,0,0,0-.21-4,8.23,8.23,0,0,0-2.26-3.43A13.93,13.93,0,0,0,167,10.35a23.87,23.87,0,0,0-3.81-1.47,40,40,0,0,0-8.13-1.44,39.37,39.37,0,0,0-4.23-.11c-.71,0-1.42.06-2.14.12s-1.43.13-2.14.23a61.53,61.53,0,0,0-8.51,1.81c-5.64,1.58-11.21,3.78-16.9,5.83l-2.14.76-2.17.73-4.39,1.46-4.43,1.47-2.23.74-2.25.7L94.45,24c-1.53.49-3.08.93-4.63,1.38l-4.67,1.36-4.71,1.37c-1.58.46-3.17.87-4.76,1.31L66.06,32c-4.38,1.14-8.77,2.08-13.15,2.81a120.56,120.56,0,0,1-13.1,1.48c-1.08.07-2.17.1-3.25.13s-2.16,0-3.23,0c-2.14,0-4.27-.14-6.37-.37a47.39,47.39,0,0,1-12.12-2.76,31.64,31.64,0,0,1-5.41-2.68l-1.24-.83c-.4-.29-.78-.6-1.18-.9s-.74-.64-1.09-1l-.51-.52-.26-.26-.24-.27A13.15,13.15,0,0,1,2.11,22a11.55,11.55,0,0,1-.3-5.49L2,15.84c0-.23.12-.44.18-.67.11-.45.3-.87.45-1.31.09-.21.19-.42.28-.63L3,12.92l.16-.31L3.51,12l.37-.59A18.35,18.35,0,0,1,7.51,7.31c.34-.31.71-.57,1.07-.85s.75-.52,1.12-.78.77-.48,1.16-.7l.6-.32c.2-.11.4-.22.6-.31.41-.19.81-.4,1.23-.56s.83-.35,1.25-.49l.63-.22.64-.2c.43-.12.85-.27,1.29-.37a35.35,35.35,0,0,1,5.21-1A40.19,40.19,0,0,1,27.5,1.3a55.91,55.91,0,0,1,10,1.09A86.44,86.44,0,0,1,46.79,4.8c3,.93,5.82,2,8.55,3S60.7,10,63.22,11l7.29,3.05,6.69,2.79c2.13.89,4.15,1.73,6.07,2.51,7.62,3.28,17,7.27,28,11.44,1.38.52,2.78,1,4.21,1.55s2.87,1.06,4.35,1.58l4.52,1.54c1.53.52,3.07,1.06,4.66,1.54q4.77,1.46,9.88,2.64c3.4.79,6.91,1.49,10.53,2.06s7.33,1,11.14,1.26a74.38,74.38,0,0,0,11.69-.11,46.59,46.59,0,0,0,6-.95,30.79,30.79,0,0,0,5.88-2,19.62,19.62,0,0,0,5.3-3.56l.3-.28.28-.3c.18-.2.37-.4.55-.61a16.3,16.3,0,0,0,1-1.31c.33-.44.58-.93.86-1.41l.36-.74c.06-.12.12-.25.18-.37l.15-.38a17.36,17.36,0,0,0,1-3.17c.09-.54.21-1.08.25-1.63l.09-.82,0-.82a26.8,26.8,0,0,0-.07-3.29,13.4,13.4,0,0,0-.67-3.35,11.86,11.86,0,0,0-.68-1.61,11.6,11.6,0,0,0-.93-1.49,11,11,0,0,0-1.15-1.33,11.8,11.8,0,0,0-1.33-1.14,14.38,14.38,0,0,0-1.46-.95,16.81,16.81,0,0,0-1.55-.76,20.55,20.55,0,0,0-3.26-1.08,32.39,32.39,0,0,0-6.75-.85,50.91,50.91,0,0,0-6.79.29,62.89,62.89,0,0,0-6.75,1.1c-1.12.25-2.24.52-3.35.84-.55.16-1.12.33-1.66.52l-1.63.57a112.11,112.11,0,0,0-18,8.58c-5.69,3.26-11.1,6.75-16.45,10.09-1.34.84-2.67,1.66-4,2.48l-2,1.2-2,1.16q-4,2.27-8.11,4.21a83.77,83.77,0,0,1-16.57,6c-.69.18-1.4.31-2.09.45l-1,.21-1,.16c-.7.1-1.39.22-2.09.28l-1,.11-.52.05-.5,0a18.54,18.54,0,0,1-4-.35A18.75,18.75,0,0,1,73,45.46a11.17,11.17,0,0,1-1.71-.89,6.79,6.79,0,0,1-1.41-1.17,3.24,3.24,0,0,1-.78-1.45,2.77,2.77,0,0,1,.14-1.58,5.21,5.21,0,0,1,.91-1.5l.3-.35.33-.33.33-.33.35-.3a11.85,11.85,0,0,1,3.14-1.92,16.68,16.68,0,0,1,7.18-1.13,27.59,27.59,0,0,1,7,1.3,33.28,33.28,0,0,1,6.34,2.76,27.75,27.75,0,0,1,5.32,3.91,20.1,20.1,0,0,1,2.15,2.34,11.32,11.32,0,0,1,.86,1.27,7.19,7.19,0,0,1,.63,1.35,4.27,4.27,0,0,1,.24,1.38,2.88,2.88,0,0,1-.31,1.29,4.57,4.57,0,0,1-2,1.81l-.65.29-.66.25a8.65,8.65,0,0,1-1.35.33,8,8,0,0,1-2.7,0,4.88,4.88,0,0,1-2.31-1,1.77,1.77,0,0,1-.58-1,1.46,1.46,0,0,1,.22-1,3.65,3.65,0,0,1,.8-.87,7.19,7.19,0,0,1,1-.66c.18-.1.36-.19.55-.28a5.75,5.75,0,0,1,.56-.24l.56-.21.57-.16c.19-.06.39-.08.58-.12a4.93,4.93,0,0,1,.58-.09l.58-.06.58,0c.19,0,.38,0,.57,0l.57,0c.37,0,.75,0,1.11.1a25.43,25.43,0,0,1,4.15.91c1.3.39,2.51.84,3.65,1.29,2.27.91,4.24,1.86,5.93,2.69s3.11,1.57,4.27,2.16,2,1,2.64,1.3l.68.31Z"/></g></g></svg>