<svg xmlns="http://www.w3.org/2000/svg" xmlns:xlink="http://www.w3.org/1999/xlink" viewBox="0 0 129.47 44.39"><defs><style>.cls-1{fill:url(#linear-gradient);}</style><linearGradient id="linear-gradient" x1="-0.14" y1="21.81" x2="129.52" y2="21.81" gradientTransform="matrix(-1, 0.01, 0.01, 1, 129.23, -0.7)" gradientUnits="userSpaceOnUse"><stop offset="0" stop-color="#fef275"/><stop offset="1" stop-color="#bda32b"/></linearGradient></defs><title>Ресурс 2</title><g id="Слой_2" data-name="Слой 2"><g id="BG"><path class="cls-1" d="M129.44,8.27a3.58,3.58,0,0,0-.16-1.46,3.73,3.73,0,0,0-.75-1.32A3.83,3.83,0,0,0,128,5l0,0a3,3,0,0,0-1.57-.85,2.47,2.47,0,0,0-.93,0,4.1,4.1,0,0,0-1.6-.25l-.31,0-.32,0-.63.15-1.21.32a3.54,3.54,0,0,1-1.5.14,2.1,2.1,0,0,1-1-.66,8.73,8.73,0,0,1-.65-.79L118,2.74v.1c0,.07,0,.17,0,.29a4.61,4.61,0,0,0,.28,1.06,3,3,0,0,0,.4.7,6.65,6.65,0,0,1,.49,1.31,6.75,6.75,0,0,0,.32,1.22,2.93,2.93,0,0,0,.52.88,2.5,2.5,0,0,0,1.52.88,3.05,3.05,0,0,0,2-.52,4.37,4.37,0,0,0,1.3-1.44c.24-.38.41-.74.57-1a3.4,3.4,0,0,1,.47-.72.53.53,0,0,1,.52-.24,3.35,3.35,0,0,1,1,.45,3.09,3.09,0,0,1,1,1.45,4.08,4.08,0,0,1-.12,2.7,4.37,4.37,0,0,1-.71,1.23l-.18.35.33-.21a4.56,4.56,0,0,0,.81-.74,4.11,4.11,0,0,0,.4-.56v0a5.69,5.69,0,0,1-.61,1.49,6,6,0,0,1-1.11,1.34,10.36,10.36,0,0,1-3.35,2l-.31.11.24-.23.21-.2,1.21-.64,1.77-.9-1.87.67-2.16.86-2.84,1.16-.77.3a39.15,39.15,0,0,1-9.85.12c-1.8-.21-3.66-.49-5.55-.89s-3.82-.85-5.77-1.39C94.2,12.64,90.16,11.32,86,10c-2.1-.65-4.22-1.3-6.36-2s-4.31-1.36-6.51-2-4.42-1.34-6.66-2-4.52-1.23-6.82-1.75c-1.15-.28-2.31-.5-3.46-.74-.58-.13-1.16-.21-1.75-.32S53.24,1,52.65.92C51.47.75,50.3.56,49.12.45,48.53.39,47.95.31,47.35.26L45.58.14,44.69.08l-.89,0L42,0H38.54L36.8,0,35.06.11l-.87,0L33.33.2c-.58,0-1.15.07-1.73.12a52.71,52.71,0,0,0-6.82,1l-.84.19c-.28.07-.56.12-.83.21l-1.64.47-1.6.56c-.27.09-.53.2-.79.3l-.78.32c-.26.11-.52.21-.77.33l-.75.36c-.5.24-1,.48-1.47.75s-1,.52-1.43.81l-1.37.86c-.23.14-.45.29-.66.45l-.65.46-.65.46c-.21.15-.42.32-.62.48l-1.23,1-.61.51c-.2.17-.41.34-.59.53l-.57.54c-.19.18-.37.37-.55.56-.37.37-.7.77-1,1.15a24.27,24.27,0,0,0-3.25,5A22.87,22.87,0,0,0,1,20.29,19.09,19.09,0,0,0,.5,30.74,16.6,16.6,0,0,0,2.2,35a17.83,17.83,0,0,0,2.41,3.28,19.4,19.4,0,0,0,2.79,2.47l.75.53c.12.09.25.17.39.25l.4.24c.27.17.55.31.82.45l.41.21.42.19a18.33,18.33,0,0,0,3.44,1.14,23,23,0,0,0,3.48.52,26.71,26.71,0,0,0,6.75-.39,26.33,26.33,0,0,0,3.18-.78c.52-.15,1-.34,1.52-.52l.74-.3c.25-.1.49-.2.73-.32l.72-.33.7-.36.35-.18.34-.2.67-.4.65-.43.32-.21.31-.23.62-.46.59-.49c.2-.16.38-.33.57-.51l.55-.52c.34-.37.7-.72,1-1.11a16.35,16.35,0,0,0,1.69-2.41l.34-.64.16-.32.14-.33.28-.66.23-.67.11-.34c0-.11.06-.23.09-.34l.17-.68c0-.23.08-.46.11-.69l.05-.34c0-.11,0-.23,0-.34l.05-.68q0-.34,0-.67v-.33l0-.33-.06-.66-.11-.64c0-.11,0-.21-.06-.32L41,24.88c-.05-.21-.1-.41-.16-.62l-.2-.59-.1-.29-.12-.28-.24-.56L39.88,22l-.14-.26-.15-.25-.31-.5c-.11-.16-.23-.31-.34-.47a10.81,10.81,0,0,0-.71-.88,11.16,11.16,0,0,0-3.3-2.53,10.4,10.4,0,0,0-3.45-1,9.71,9.71,0,0,0-3,.09l-.33.06-.31.08-.59.16c-.37.13-.72.25-1,.39l-.84.41-.27.16a4.11,4.11,0,1,0,2.1.16l.3-.07.54-.07.28,0,.29,0a9.1,9.1,0,0,1,2.6.18,9.25,9.25,0,0,1,2.84,1.11,9.63,9.63,0,0,1,2.62,2.28,9.05,9.05,0,0,1,.55.76c.08.13.18.26.26.4l.23.42.12.21L38,23l.21.45.17.47.09.24.07.24.14.49.1.51.05.25c0,.09,0,.17,0,.26l.06.52,0,.53v.54l0,.54-.07.54c0,.09,0,.18,0,.27l-.06.27c0,.18-.07.36-.11.55l-.16.54c0,.09,0,.18-.08.27l-.1.27-.2.54-.25.53-.12.27-.15.26-.29.52a17.07,17.07,0,0,1-8,6.5c-.21.1-.43.18-.65.27l-.66.25c-.45.15-.9.31-1.37.44a23.88,23.88,0,0,1-2.85.65,24.18,24.18,0,0,1-6,.27,20.2,20.2,0,0,1-3-.48,15.43,15.43,0,0,1-2.88-1l-.35-.15-.33-.17c-.22-.12-.45-.23-.66-.36l-.32-.2a3.42,3.42,0,0,1-.32-.21l-.64-.45a16.47,16.47,0,0,1-2.34-2.07,14.93,14.93,0,0,1-2-2.68A13.6,13.6,0,0,1,3.54,30a15.11,15.11,0,0,1-.42-4.19c0-.37,0-.74.08-1.12s.1-.76.16-1.14a18.83,18.83,0,0,1,.57-2.31,19.93,19.93,0,0,1,.89-2.32,21.38,21.38,0,0,1,2.79-4.43c.3-.34.58-.7.9-1,.16-.17.31-.34.47-.5l.5-.48c.16-.16.34-.32.52-.47l.53-.46,1.15-.91c.19-.15.38-.31.58-.46l.6-.43.61-.44c.2-.15.4-.3.62-.43l1.26-.82c.43-.27.87-.51,1.31-.76s.89-.48,1.35-.71l.69-.35c.23-.12.47-.21.7-.31l.71-.31c.24-.1.47-.21.72-.29l1.47-.54,1.51-.46c.25-.08.51-.14.77-.2l.78-.19a50.35,50.35,0,0,1,6.46-1c.55-.06,1.11-.09,1.67-.14l.84-.07.84,0,1.7-.09.74,0a3.51,3.51,0,0,0,.54.23,10.88,10.88,0,0,0,2.32.42c.89.08,1.9.31,3,.49a62.35,62.35,0,0,1,7.67,1.95c2.8,1,5.87,2.18,9.1,3.46,4.39,1.72,8.55,3.26,12.17,4.41,1.82.54,3.48,1.06,5,1.41l2.07.52,1.77.35,1.72.53c.63.19,1.32.37,2.05.58,1.47.4,3.15.85,5,1.29a65.27,65.27,0,0,0,12.88,1.92,40.78,40.78,0,0,0,5.15-.15c.83-.05,1.64-.2,2.44-.3.4-.06.79-.15,1.17-.22s.77-.13,1.14-.24a32.46,32.46,0,0,0,6.91-2.54q.63-.12,1.25-.27c-.83.48-1.81,1-2.94,1.56l-.76.36-.8.35c-.54.25-1.12.47-1.71.72-1.2.46-2.48.93-3.86,1.34a41.51,41.51,0,0,1-4.36,1.07c-.76.14-1.53.25-2.33.33l-1.21.1-1.23.06a71.12,71.12,0,0,1-12.33-.76c-3.6-.52-6.58-1.1-8.63-1.51-1-.33-2.21-.71-3.6-1.21s-3-1.07-4.68-1.67S69,15.67,67,14.93l-6.07-2.54c-1.54-.67-3-1.31-4.51-1.92s-2.77-1.3-4.06-2-2.52-1.33-3.68-1.92S46.41,5.47,45.39,5a22.34,22.34,0,0,0-5.07-1.49l-.82-.11-.6,0-.5,0,.49.09.59.11.79.21a25.08,25.08,0,0,1,4.78,2c1,.51,2,1.1,3.12,1.76l3.55,2.13a45.05,45.05,0,0,0,4.09,2.19c1.45.66,3,1.32,4.51,2,2.12.9,4.2,1.68,6.17,2.45s3.89,1.32,5.64,1.89,3.4.93,4.84,1.31,2.7.63,3.72.85a84.4,84.4,0,0,0,8.53,2.29,52.89,52.89,0,0,0,12.6,1.21c.43,0,.86,0,1.28-.07l1.26-.12c.84-.09,1.66-.23,2.46-.4A35.38,35.38,0,0,0,111.29,22c1.4-.5,2.69-1.06,3.88-1.62.59-.3,1.16-.57,1.69-.86l.79-.43.74-.44a32.41,32.41,0,0,0,3.72-2.56,19.32,19.32,0,0,0,2-.68,10.91,10.91,0,0,0,3.49-2.19,6.52,6.52,0,0,0,1.16-1.5,6.13,6.13,0,0,0,.61-1.65l.07-.41c0-.14,0-.27,0-.41a4.87,4.87,0,0,0,0-.79C129.46,8.37,129.45,8.32,129.44,8.27Zm-16.91,9.57c-.36.09-.73.12-1.11.18l-1.14.16c-.77.07-1.55.18-2.36.21-1.6.13-3.27.12-5,.08A94.09,94.09,0,0,1,90.25,17c-1.86-.32-3.55-.63-5.05-.9l-2.1-.38-1.75-.35-1.71-.53-2-.7c-1.44-.48-3-1.11-4.81-1.77-3.51-1.36-7.57-3.06-12-4.79-3.23-1.28-6.36-2.4-9.3-3.26a49.07,49.07,0,0,0-7.95-1.45c-1.14-.09-2.17-.22-3.09-.21a11.3,11.3,0,0,1-2.28-.16h.36l1.72,0,1.72,0,1.71,0h.86l.86,0,1.72.09c.57,0,1.14.1,1.72.15,1.15.09,2.29.26,3.43.4.57.07,1.14.18,1.71.26s1.14.17,1.71.28c1.14.21,2.28.42,3.41.67,2.27.47,4.52,1,6.76,1.6s4.45,1.2,6.65,1.84,4.38,1.28,6.54,1.91,4.31,1.25,6.41,1.85C89.71,12.76,93.8,14,97.79,15c2,.5,4,.92,5.88,1.28s3.83.6,5.67.77a44.69,44.69,0,0,0,6.26.07A30.77,30.77,0,0,1,112.53,17.84Zm10-2.7.54-.29.66-.35-.07.05-.57.41ZM126,4.2l-.37,0-.05,0a2.5,2.5,0,0,1,.71.06l.21.06-.06,0Z"/></g></g></svg>