<?xml version="1.0" encoding="utf-8"?>
<!-- Generator: Adobe Illustrator 21.0.0, SVG Export Plug-In . SVG Version: 6.00 Build 0)  -->
<svg version="1.1" id="Capa_1" xmlns="http://www.w3.org/2000/svg" xmlns:xlink="http://www.w3.org/1999/xlink" x="0px" y="0px"
	 viewBox="0 0 90 90" style="enable-background:new 0 0 90 90;" xml:space="preserve">
<style type="text/css">
	.st0{fill:#00897B;}
</style>
<g>
	<path id="Baidu" class="st0" d="M24,33.6c0.5,7.7-3.6,14.2-9.3,14.6C9.1,48.6,4.1,42.7,3.5,35C3,27.4,7.2,20.8,12.8,20.5
		C18.5,20.1,23.5,25.9,24,33.6z M62.9,1.9c-5.5-1.4-11.5,3.5-13.4,10.9s1,14.6,6.5,16s11.5-3.5,13.4-10.9
		C71.9,8.2,64.3,2.2,62.9,1.9z M75.8,26.9C70,27,65.5,32.5,65.6,41s4.9,12.4,10.7,12.3c5.8-0.1,10.4-4.1,10.2-12.6
		C86.3,29.6,77.2,26.9,75.8,26.9z M34,0c-5.5,0-10,6.2-10,13.8s4.5,13.8,10,13.8s10-6.2,10-13.8S39.5,0,34,0z M32.7,42.7
		c-3.2,4.6-6.8,9-13.8,14.8s-10,9.9-10,15.8s3.4,15.8,13,15.8s14.4-2.1,22-2.1s12.7,3,22.3,3s13.7-9.1,13.7-15.1
		c0-5.9-1.7-9.3-9.4-16.1c-4.9-4.3-9.1-7.9-15.7-17c-3.2-4.5-7-5.1-10.9-5.1C40,36.8,35.9,38.2,32.7,42.7z"/>
</g>
</svg>
